<svg width="30" height="30" fill="none" xmlns="http://www.w3.org/2000/svg"><path d="M26.269 1H3.73A3.732 3.732 0 0 0 0 4.732v12.503a3.731 3.731 0 0 0 3.731 3.731h10.59c-.139 2.948-1.81 6.18-1.831 6.218a1.018 1.018 0 0 0 .224 1.231c.275.233.631.346.99.316.178-.002.357-.017.533-.044 1.102-.174 4.963-1.211 9.09-7.721h2.941A3.732 3.732 0 0 0 30 17.234V4.732A3.732 3.732 0 0 0 26.268 1Zm1.696 16.228a1.696 1.696 0 0 1-1.696 1.696H22.76c-.355 0-.684.185-.868.489-2.673 4.382-5.227 6.22-6.784 6.91.647-1.646 1.424-4.166 1.241-6.446a1.018 1.018 0 0 0-1.018-.936h-11.6a1.697 1.697 0 0 1-1.697-1.696V4.73a1.696 1.696 0 0 1 1.696-1.696h22.537a1.697 1.697 0 0 1 1.696 1.696v12.497Z" fill="#000"/><path d="M16.187 12.147H8.385a1.018 1.018 0 0 0 0 2.035h7.802a1.017 1.017 0 0 0 0-2.035ZM21.615 7.737H8.385a1.018 1.018 0 1 0 0 2.035h13.23a1.018 1.018 0 1 0 0-2.035Z" fill="#000"/></svg>