

<svg viewBox="0 0 25 25">
  <g fill="none" fill-rule="evenodd">
    <path d="M0 0L25 0 25 25 0 25z"/>
    <path d="M20.8333333,4.16666667 L4.16666667,4.16666667 C3.02083333,4.16666667 2.09375,5.10416667 2.09375,6.25 L2.08333333,18.75 C2.08333333,19.8958333 3.02083333,20.8333333 4.16666667,20.8333333 L20.8333333,20.8333333 C21.9791667,20.8333333 22.9166667,19.8958333 22.9166667,18.75 L22.9166667,6.25 C22.9166667,5.10416667 21.9791667,4.16666667 20.8333333,4.16666667 Z M20.8333333,18.75 L4.16666667,18.75 L4.16666667,8.33333333 L12.5,13.5416667 L20.8333333,8.33333333 L20.8333333,18.75 Z M12.5,11.4583333 L4.16666667,6.25 L20.8333333,6.25 L12.5,11.4583333 Z" fill="currentColor" fill-rule="nonzero"/>
  </g>
</svg>
