<svg viewBox="0 0 25 25">
  <path fill="currentColor" d="M13.458 25.5c-1.708 0-3.322-.328-4.843-.984a12.678 12.678 0 0 1-3.985-2.688 12.679 12.679 0 0 1-2.687-3.984A12.096 12.096 0 0 1 .958 13c0-1.77.334-3.417 1-4.938a12.451 12.451 0 0 1 2.735-3.968 12.613 12.613 0 0 1 4.062-2.64C10.307.817 11.97.5 13.74.5c1.646 0 3.208.276 4.687.828 1.48.552 2.776 1.318 3.89 2.297 1.115.98 2 2.14 2.657 3.484.656 1.344.984 2.818.984 4.422 0 2.25-.656 4.026-1.968 5.328-1.313 1.302-3.052 1.953-5.22 1.953h-2.343c-.375 0-.698.146-.969.438-.27.292-.406.615-.406.969 0 .562.151 1.041.453 1.437.302.396.453.854.453 1.375 0 .792-.218 1.401-.656 1.828-.437.427-1.052.641-1.844.641Zm-7.28-11.688a1.5 1.5 0 0 0 1.093-.468 1.5 1.5 0 0 0 .469-1.094 1.5 1.5 0 0 0-.47-1.094 1.5 1.5 0 0 0-1.093-.469 1.5 1.5 0 0 0-1.094.47 1.5 1.5 0 0 0-.468 1.093c0 .417.156.781.468 1.094a1.5 1.5 0 0 0 1.094.469ZM10.114 8.5a1.5 1.5 0 0 0 1.093-.469c.313-.312.47-.677.47-1.094 0-.416-.157-.78-.47-1.093a1.5 1.5 0 0 0-1.093-.469c-.417 0-.782.156-1.094.469a1.499 1.499 0 0 0-.469 1.093c0 .417.156.782.469 1.094.312.313.677.469 1.094.469Zm6.687 0a1.5 1.5 0 0 0 1.094-.469c.312-.312.469-.677.469-1.094 0-.416-.157-.78-.47-1.093a1.5 1.5 0 0 0-1.093-.469c-.416 0-.781.156-1.094.469a1.5 1.5 0 0 0-.468 1.093c0 .417.156.782.468 1.094.313.313.678.469 1.094.469Zm4.094 5.313a1.5 1.5 0 0 0 1.094-.47 1.5 1.5 0 0 0 .468-1.093 1.5 1.5 0 0 0-.468-1.094 1.5 1.5 0 0 0-1.094-.469 1.5 1.5 0 0 0-1.094.47 1.5 1.5 0 0 0-.469 1.093c0 .417.157.781.47 1.094a1.5 1.5 0 0 0 1.093.469Zm-7.438 9.812c.23 0 .391-.047.485-.14.094-.094.14-.245.14-.454 0-.291-.15-.562-.453-.812-.302-.25-.453-.802-.453-1.657 0-.958.313-1.802.938-2.53.625-.73 1.416-1.095 2.375-1.095h2.28c1.584 0 2.866-.463 3.845-1.39.979-.927 1.468-2.266 1.468-4.016 0-2.75-1.041-4.963-3.125-6.64-2.083-1.677-4.49-2.516-7.218-2.516-3.042 0-5.62 1.026-7.735 3.078C3.891 7.505 2.833 10.021 2.833 13c0 2.938 1.037 5.443 3.11 7.516 2.073 2.073 4.578 3.109 7.515 3.109Z"/>
</svg>
