
<svg viewBox="0 0 25 25">
  <path d="M23.625,17.1944444 C21.9166667,17.1944444 20.2638889,16.9166667 18.7222222,16.4166667 C18.2361111,16.25 17.6944444,16.375 17.3194444,16.75 L15.1388889,19.4861111 C11.2083333,17.6111111 7.52777778,14.0694444 5.56944444,10 L8.27777778,7.69444444 C8.65277778,7.30555556 8.76388889,6.76388889 8.61111111,6.27777778 C8.09722222,4.73611111 7.83333333,3.08333333 7.83333333,1.375 C7.83333333,0.625 7.20833333,0 6.45833333,0 L1.65277778,0 C0.902777778,0 0,0.333333333 0,1.375 C0,14.2777778 10.7361111,25 23.625,25 C24.6111111,25 25,24.125 25,23.3611111 L25,18.5694444 C25,17.8194444 24.375,17.1944444 23.625,17.1944444 Z" fill="currentColor" fill-rule="nonzero"/>
</svg>