<svg viewBox="0 0 25 25">
  <g fill="none" fill-rule="evenodd">
    <path d="M0 0L25 0 25 25 0 25z"/>
    <path d="M20.84375,16.0208333 C19.5625,16.0208333 18.3229167,15.8125 17.1666667,15.4375 C16.8020833,15.3125 16.3958333,15.40625 16.1145833,15.6875 L14.4791667,17.7395833 C11.53125,16.3333333 8.77083333,13.6770833 7.30208333,10.625 L9.33333333,8.89583333 C9.61458333,8.60416667 9.69791667,8.19791667 9.58333333,7.83333333 C9.19791667,6.67708333 9,5.4375 9,4.15625 C9,3.59375 8.53125,3.125 7.96875,3.125 L4.36458333,3.125 C3.80208333,3.125 3.125,3.375 3.125,4.15625 C3.125,13.8333333 11.1770833,21.875 20.84375,21.875 C21.5833333,21.875 21.875,21.21875 21.875,20.6458333 L21.875,17.0520833 C21.875,16.4895833 21.40625,16.0208333 20.84375,16.0208333 Z" fill="currentColor" fill-rule="nonzero"/>
  </g>
</svg>
