<svg viewBox="0 0 25 25">
  <g fill="currentColor" fill-rule="evenodd">
    <path d="M19,23.75 L14.41625,21.909375 C15.2475,20.0925 15.84125,18.21625 16.209375,16.304375 L19,23.75 M4.58375,21.909375 L0,23.75 L2.790625,16.304375 C3.15875,18.21625 3.7525,20.0925 4.58375,21.909375 M9.5,0 C9.5,0 15.4375,2.375 15.4375,11.875 C15.4375,15.55625 14.546875,18.703125 13.454375,21.173125 C13.0625,22.028125 12.219375,22.5625 11.28125,22.5625 L7.71875,22.5625 C6.780625,22.5625 5.9375,22.028125 5.545625,21.173125 C4.465,18.703125 3.5625,15.55625 3.5625,11.875 C3.5625,2.375 9.5,0 9.5,0 M9.5,11.875 C10.80625,11.875 11.875,10.80625 11.875,9.5 C11.875,8.19375 10.80625,7.125 9.5,7.125 C8.19375,7.125 7.125,8.19375 7.125,9.5 C7.125,10.80625 8.19375,11.875 9.5,11.875 Z" transform="translate(15.500000, 9.402796) rotate(45.000000) translate(-15.500000, -9.402796) translate(6.000000, -2.597204)" fill-rule="nonzero"/>
    <path id="fire" d="M2.40621997,17.0798105 L6.40621997,17.0798105 L7.26618602,24.0056373 C5.96079715,20.8838854 4.99046103,19.3272067 4.35517766,19.3356011 C3.71989429,19.3439955 2.81910657,20.9253986 1.65281451,24.0798105 L2.40621997,17.0798105 Z" transform="translate(4.459500, 20.579810) rotate(45.000000) translate(-4.459500, -20.579810)"/>
  </g>
</svg>
