<?xml version="1.0" standalone="no"?>
<!DOCTYPE svg PUBLIC "-//W3C//DTD SVG 20010904//EN"
 "http://www.w3.org/TR/2001/REC-SVG-20010904/DTD/svg10.dtd">
<svg version="1.0" xmlns="http://www.w3.org/2000/svg"
 width="700.000000pt" height="700.000000pt" viewBox="0 0 700.000000 700.000000"
 preserveAspectRatio="xMidYMid meet">
<metadata>
Created by potrace 1.11, written by Peter Selinger 2001-2013
</metadata>
<g transform="translate(0.000000,700.000000) scale(0.100000,-0.100000)"
fill="#000000" stroke="none">
<path d="M440 5905 l0 -655 655 0 655 0 0 655 0 655 -655 0 -655 0 0 -655z"/>
<path d="M2190 5030 l0 -1530 655 0 655 0 0 1530 0 1530 -655 0 -655 0 0
-1530z"/>
<path d="M3940 3500 l0 -3060 1310 0 1310 0 0 3060 0 3060 -1310 0 -1310 0 0
-3060z"/>
<path d="M440 4155 l0 -655 655 0 655 0 0 655 0 655 -655 0 -655 0 0 -655z"/>
<path d="M440 1750 l0 -1310 1530 0 1530 0 0 1310 0 1310 -1530 0 -1530 0 0
-1310z"/>
</g>
</svg>
