<?xml version="1.0" standalone="no"?>
<!DOCTYPE svg PUBLIC "-//W3C//DTD SVG 20010904//EN"
 "http://www.w3.org/TR/2001/REC-SVG-20010904/DTD/svg10.dtd">
<svg version="1.0" xmlns="http://www.w3.org/2000/svg"
 width="700.000000pt" height="700.000000pt" viewBox="0 0 700.000000 700.000000"
 preserveAspectRatio="xMidYMid meet">
<g transform="translate(0.000000,700.000000) scale(0.100000,-0.100000)"
fill="#000000" stroke="none">
<path d="M0 3500 l0 -3500 3500 0 3500 0 0 3500 0 3500 -3500 0 -3500 0 0
-3500z m1752 2408 l-2 -658 -655 0 c-517 0 -655 3 -656 13 -1 16 -1 1302 0
1302 1 0 297 0 659 0 l657 0 -3 -657z m1746 -876 l2 -1532 -655 0 c-617 0
-655 1 -655 18 -4 136 0 3033 3 3039 3 4 297 8 654 7 l648 -1 3 -1531z m3063
1513 c0 -11 1 -1389 2 -3062 2 -3037 2 -3043 -18 -3044 -147 -6 -2598 -2
-2602 5 -8 11 -8 6101 0 6112 3 5 566 9 1311 9 1299 0 1306 0 1307 -20z
m-4838 -1735 l27 0 0 -655 0 -655 -657 2 -656 3 0 646 c0 355 2 650 5 655 5 7
955 10 1281 4z m1770 -1749 c4 -1 7 -590 7 -1311 0 -720 -3 -1310 -7 -1311
-45 -4 -3045 -1 -3049 4 -5 5 -9 2517 -5 2607 1 13 176 15 1523 13 838 -1
1526 -2 1531 -2z"/>
</g>
</svg>
